<svg xmlns="http://www.w3.org/2000/svg" viewBox="0 0 192 192">
  <rect width="192" height="192" fill="#1D4ED8"/>
  <path d="M96 40c-22.091 0-40 17.909-40 40v16c0 4.418 3.582 8 8 8s8-3.582 8-8V80c0-13.255 10.745-24 24-24s24 10.745 24 24v16c0 4.418 3.582 8 8 8s8-3.582 8-8V80c0-22.091-17.909-40-40-40zm0 64c-8.837 0-16 7.163-16 16v24c0 8.837 7.163 16 16 16s16-7.163 16-16v-24c0-8.837-7.163-16-16-16z" fill="white"/>
  <text x="96" y="172" font-family="Arial, sans-serif" font-size="20" font-weight="bold" fill="white" text-anchor="middle">SG360</text>
</svg>
